<svg width="125" height="23" viewBox="0 0 125 23" fill="none" xmlns="http://www.w3.org/2000/svg">
<path d="M12.336 9.07198C13.296 9.37598 14.048 9.88798 14.592 10.608C15.136 11.312 15.408 12.184 15.408 13.224C15.408 14.696 14.832 15.832 13.68 16.632C12.544 17.416 10.88 17.808 8.688 17.808H-4.29153e-06V1.00798H8.208C10.256 1.00798 11.824 1.39998 12.912 2.18398C14.016 2.96798 14.568 4.03198 14.568 5.37598C14.568 6.19198 14.368 6.91998 13.968 7.55998C13.584 8.19998 13.04 8.70398 12.336 9.07198ZM3.864 3.93598V7.89598H7.728C8.688 7.89598 9.416 7.72798 9.912 7.39198C10.408 7.05598 10.656 6.55998 10.656 5.90398C10.656 5.24798 10.408 4.75998 9.912 4.43998C9.416 4.10398 8.688 3.93598 7.728 3.93598H3.864ZM8.4 14.88C9.424 14.88 10.192 14.712 10.704 14.376C11.232 14.04 11.496 13.52 11.496 12.816C11.496 11.424 10.464 10.728 8.4 10.728H3.864V14.88H8.4ZM24.2316 18C22.8716 18 21.6476 17.72 20.5596 17.16C19.4876 16.584 18.6476 15.792 18.0396 14.784C17.4316 13.776 17.1276 12.632 17.1276 11.352C17.1276 10.072 17.4316 8.92798 18.0396 7.91998C18.6476 6.91198 19.4876 6.12798 20.5596 5.56798C21.6476 4.99198 22.8716 4.70398 24.2316 4.70398C25.5916 4.70398 26.8076 4.99198 27.8796 5.56798C28.9516 6.12798 29.7916 6.91198 30.3996 7.91998C31.0076 8.92798 31.3116 10.072 31.3116 11.352C31.3116 12.632 31.0076 13.776 30.3996 14.784C29.7916 15.792 28.9516 16.584 27.8796 17.16C26.8076 17.72 25.5916 18 24.2316 18ZM24.2316 14.928C25.1916 14.928 25.9756 14.608 26.5836 13.968C27.2076 13.312 27.5196 12.44 27.5196 11.352C27.5196 10.264 27.2076 9.39998 26.5836 8.75998C25.9756 8.10398 25.1916 7.77598 24.2316 7.77598C23.2716 7.77598 22.4796 8.10398 21.8556 8.75998C21.2316 9.39998 20.9196 10.264 20.9196 11.352C20.9196 12.44 21.2316 13.312 21.8556 13.968C22.4796 14.608 23.2716 14.928 24.2316 14.928ZM39.9581 18C38.5981 18 37.3741 17.72 36.2861 17.16C35.2141 16.584 34.3741 15.792 33.7661 14.784C33.1581 13.776 32.8541 12.632 32.8541 11.352C32.8541 10.072 33.1581 8.92798 33.7661 7.91998C34.3741 6.91198 35.2141 6.12798 36.2861 5.56798C37.3741 4.99198 38.5981 4.70398 39.9581 4.70398C41.3181 4.70398 42.5341 4.99198 43.6061 5.56798C44.6781 6.12798 45.5181 6.91198 46.1261 7.91998C46.7341 8.92798 47.0381 10.072 47.0381 11.352C47.0381 12.632 46.7341 13.776 46.1261 14.784C45.5181 15.792 44.6781 16.584 43.6061 17.16C42.5341 17.72 41.3181 18 39.9581 18ZM39.9581 14.928C40.9181 14.928 41.7021 14.608 42.3101 13.968C42.9341 13.312 43.2461 12.44 43.2461 11.352C43.2461 10.264 42.9341 9.39998 42.3101 8.75998C41.7021 8.10398 40.9181 7.77598 39.9581 7.77598C38.9981 7.77598 38.2061 8.10398 37.5821 8.75998C36.9581 9.39998 36.6461 10.264 36.6461 11.352C36.6461 12.44 36.9581 13.312 37.5821 13.968C38.2061 14.608 38.9981 14.928 39.9581 14.928ZM55.0847 12.744L53.2847 14.52V17.808H49.5407V-1.7643e-05H53.2847V10.08L58.7567 4.89598H63.2207L57.8447 10.368L63.7007 17.808H59.1647L55.0847 12.744ZM69.3066 18C68.2346 18 67.1866 17.872 66.1626 17.616C65.1386 17.344 64.3226 17.008 63.7146 16.608L64.9626 13.92C65.5386 14.288 66.2346 14.592 67.0506 14.832C67.8666 15.056 68.6666 15.168 69.4506 15.168C71.0346 15.168 71.8266 14.776 71.8266 13.992C71.8266 13.624 71.6106 13.36 71.1786 13.2C70.7466 13.04 70.0826 12.904 69.1866 12.792C68.1306 12.632 67.2586 12.448 66.5706 12.24C65.8826 12.032 65.2826 11.664 64.7706 11.136C64.2746 10.608 64.0266 9.85598 64.0266 8.87998C64.0266 8.06398 64.2586 7.34398 64.7226 6.71998C65.2026 6.07998 65.8906 5.58398 66.7866 5.23198C67.6986 4.87998 68.7706 4.70398 70.0026 4.70398C70.9146 4.70398 71.8186 4.80798 72.7146 5.01598C73.6266 5.20798 74.3786 5.47998 74.9706 5.83198L73.7226 8.49598C72.5866 7.85598 71.3466 7.53598 70.0026 7.53598C69.2026 7.53598 68.6026 7.64798 68.2026 7.87198C67.8026 8.09598 67.6026 8.38398 67.6026 8.73598C67.6026 9.13598 67.8186 9.41598 68.2506 9.57598C68.6826 9.73598 69.3706 9.88798 70.3146 10.032C71.3706 10.208 72.2346 10.4 72.9066 10.608C73.5786 10.8 74.1626 11.16 74.6586 11.688C75.1546 12.216 75.4026 12.952 75.4026 13.896C75.4026 14.696 75.1626 15.408 74.6826 16.032C74.2026 16.656 73.4986 17.144 72.5706 17.496C71.6586 17.832 70.5706 18 69.3066 18ZM85.5606 4.70398C87.1606 4.70398 88.4486 5.18398 89.4246 6.14398C90.4166 7.10398 90.9126 8.52798 90.9126 10.416V17.808H87.1686V10.992C87.1686 9.96798 86.9446 9.20798 86.4966 8.71198C86.0486 8.19998 85.4006 7.94398 84.5526 7.94398C83.6086 7.94398 82.8566 8.23998 82.2966 8.83198C81.7366 9.40798 81.4566 10.272 81.4566 11.424V17.808H77.7126V-1.7643e-05H81.4566V6.23998C81.9526 5.74398 82.5526 5.36798 83.2566 5.11198C83.9606 4.83998 84.7286 4.70398 85.5606 4.70398ZM100.591 18C99.2309 18 98.0069 17.72 96.9189 17.16C95.8469 16.584 95.0069 15.792 94.3989 14.784C93.7909 13.776 93.4869 12.632 93.4869 11.352C93.4869 10.072 93.7909 8.92798 94.3989 7.91998C95.0069 6.91198 95.8469 6.12798 96.9189 5.56798C98.0069 4.99198 99.2309 4.70398 100.591 4.70398C101.951 4.70398 103.167 4.99198 104.239 5.56798C105.311 6.12798 106.151 6.91198 106.759 7.91998C107.367 8.92798 107.671 10.072 107.671 11.352C107.671 12.632 107.367 13.776 106.759 14.784C106.151 15.792 105.311 16.584 104.239 17.16C103.167 17.72 101.951 18 100.591 18ZM100.591 14.928C101.551 14.928 102.335 14.608 102.943 13.968C103.567 13.312 103.879 12.44 103.879 11.352C103.879 10.264 103.567 9.39998 102.943 8.75998C102.335 8.10398 101.551 7.77598 100.591 7.77598C99.6309 7.77598 98.8389 8.10398 98.2149 8.75998C97.5909 9.39998 97.2789 10.264 97.2789 11.352C97.2789 12.44 97.5909 13.312 98.2149 13.968C98.8389 14.608 99.6309 14.928 100.591 14.928ZM117.805 4.70398C119.005 4.70398 120.093 4.98398 121.069 5.54398C122.061 6.08798 122.837 6.86398 123.397 7.87198C123.957 8.86398 124.237 10.024 124.237 11.352C124.237 12.68 123.957 13.848 123.397 14.856C122.837 15.848 122.061 16.624 121.069 17.184C120.093 17.728 119.005 18 117.805 18C116.157 18 114.861 17.48 113.917 16.44V22.464H110.173V4.89598H113.749V6.38398C114.677 5.26398 116.029 4.70398 117.805 4.70398ZM117.157 14.928C118.117 14.928 118.901 14.608 119.509 13.968C120.133 13.312 120.445 12.44 120.445 11.352C120.445 10.264 120.133 9.39998 119.509 8.75998C118.901 8.10398 118.117 7.77598 117.157 7.77598C116.197 7.77598 115.405 8.10398 114.781 8.75998C114.173 9.39998 113.869 10.264 113.869 11.352C113.869 12.44 114.173 13.312 114.781 13.968C115.405 14.608 116.197 14.928 117.157 14.928Z" fill="#1C2A39"/>
</svg>
