<svg width="14" height="17" viewBox="0 0 14 17" fill="none" xmlns="http://www.w3.org/2000/svg">
<mask id="path-1-inside-1_1_422" fill="white">
<path fill-rule="evenodd" clip-rule="evenodd" d="M5.83853 1H7.83853C8.9431 1 9.83853 1.89543 9.83853 3V5H3.83853V3C3.83853 1.89543 4.73396 1 5.83853 1ZM2.83853 5V3C2.83853 1.34315 4.18168 0 5.83853 0H7.83853C9.49539 0 10.8385 1.34315 10.8385 3V5H11.0547C12.0991 5 12.9677 5.80364 13.0487 6.84491L13.6709 14.8449C13.7613 16.0071 12.8426 17 11.6769 17H2.00012C0.834427 17 -0.0842489 16.0071 0.00614326 14.8449L0.628366 6.84491C0.709354 5.80364 1.57792 5 2.62234 5H2.83853ZM10.8385 6H2.83853H2.62234C2.10013 6 1.66585 6.40182 1.62535 6.92245L1.00313 14.9225C0.957936 15.5035 1.41727 16 2.00012 16H11.6769C12.2598 16 12.7191 15.5035 12.6739 14.9225L12.0517 6.92246C12.0112 6.40182 11.5769 6 11.0547 6H10.8385Z"/>
</mask>
<path fill-rule="evenodd" clip-rule="evenodd" d="M5.83853 1H7.83853C8.9431 1 9.83853 1.89543 9.83853 3V5H3.83853V3C3.83853 1.89543 4.73396 1 5.83853 1ZM2.83853 5V3C2.83853 1.34315 4.18168 0 5.83853 0H7.83853C9.49539 0 10.8385 1.34315 10.8385 3V5H11.0547C12.0991 5 12.9677 5.80364 13.0487 6.84491L13.6709 14.8449C13.7613 16.0071 12.8426 17 11.6769 17H2.00012C0.834427 17 -0.0842489 16.0071 0.00614326 14.8449L0.628366 6.84491C0.709354 5.80364 1.57792 5 2.62234 5H2.83853ZM10.8385 6H2.83853H2.62234C2.10013 6 1.66585 6.40182 1.62535 6.92245L1.00313 14.9225C0.957936 15.5035 1.41727 16 2.00012 16H11.6769C12.2598 16 12.7191 15.5035 12.6739 14.9225L12.0517 6.92246C12.0112 6.40182 11.5769 6 11.0547 6H10.8385Z" fill="#1C2A39"/>
<path d="M9.83853 5V6H10.8385V5H9.83853ZM3.83853 5H2.83853V6H3.83853V5ZM2.83853 5V6H3.83853V5H2.83853ZM10.8385 5H9.83853V6H10.8385V5ZM13.0487 6.84491L14.0457 6.76737L13.0487 6.84491ZM13.6709 14.8449L12.6739 14.9225L13.6709 14.8449ZM0.00614326 14.8449L-0.990846 14.7674H-0.990846L0.00614326 14.8449ZM0.628366 6.84491L-0.368623 6.76737L0.628366 6.84491ZM1.62535 6.92245L0.628366 6.84491L1.62535 6.92245ZM1.00313 14.9225L0.00614323 14.8449H0.00614321L1.00313 14.9225ZM12.6739 14.9225L11.6769 15V15L12.6739 14.9225ZM12.0517 6.92246L11.0547 7L12.0517 6.92246ZM7.83853 0H5.83853V2H7.83853V0ZM10.8385 3C10.8385 1.34315 9.49539 0 7.83853 0V2C8.39082 2 8.83853 2.44772 8.83853 3H10.8385ZM10.8385 5V3H8.83853V5H10.8385ZM9.83853 4H3.83853V6H9.83853V4ZM2.83853 3V5H4.83853V3H2.83853ZM5.83853 0C4.18168 0 2.83853 1.34315 2.83853 3H4.83853C4.83853 2.44772 5.28625 2 5.83853 2V0ZM1.83853 3V5H3.83853V3H1.83853ZM5.83853 -1C3.62939 -1 1.83853 0.790861 1.83853 3H3.83853C3.83853 1.89543 4.73396 1 5.83853 1V-1ZM7.83853 -1H5.83853V1H7.83853V-1ZM11.8385 3C11.8385 0.790861 10.0477 -1 7.83853 -1V1C8.9431 1 9.83853 1.89543 9.83853 3H11.8385ZM11.8385 5V3H9.83853V5H11.8385ZM11.0547 4H10.8385V6H11.0547V4ZM14.0457 6.76737C13.9242 5.20546 12.6213 4 11.0547 4V6C11.5769 6 12.0112 6.40182 12.0517 6.92246L14.0457 6.76737ZM14.6679 14.7674L14.0457 6.76737L12.0517 6.92246L12.6739 14.9225L14.6679 14.7674ZM11.6769 18C13.4255 18 14.8035 16.5106 14.6679 14.7674L12.6739 14.9225C12.7191 15.5035 12.2598 16 11.6769 16V18ZM2.00012 18H11.6769V16H2.00012V18ZM-0.990846 14.7674C-1.12643 16.5106 0.251581 18 2.00012 18V16C1.41727 16 0.957936 15.5035 1.00313 14.9225L-0.990846 14.7674ZM-0.368623 6.76737L-0.990846 14.7674L1.00313 14.9225L1.62535 6.92245L-0.368623 6.76737ZM2.62234 4C1.05572 4 -0.247141 5.20545 -0.368623 6.76737L1.62535 6.92245C1.66585 6.40182 2.10013 6 2.62234 6V4ZM2.83853 4H2.62234V6H2.83853V4ZM10.8385 5H2.83853V7H10.8385V5ZM2.83853 5H2.62234V7H2.83853V5ZM2.62234 5C1.57792 5 0.709354 5.80364 0.628366 6.84491L2.62234 7L2.62234 7V5ZM0.628366 6.84491L0.00614323 14.8449L2.00012 15L2.62234 7L0.628366 6.84491ZM0.00614321 14.8449C-0.0842486 16.0071 0.834427 17 2.00012 17V15H2.00012L0.00614321 14.8449ZM2.00012 17H11.6769V15H2.00012V17ZM11.6769 17C12.8426 17 13.7613 16.0071 13.6709 14.8449L11.6769 15L11.6769 15V17ZM13.6709 14.8449L13.0487 6.84491L11.0547 7L11.6769 15L13.6709 14.8449ZM13.0487 6.84491C12.9677 5.80364 12.0991 5 11.0547 5V7H11.0547L13.0487 6.84491ZM11.0547 5H10.8385V7H11.0547V5Z" fill="#1C2A39" mask="url(#path-1-inside-1_1_422)"/>
</svg>
